<?xml version="1.0" encoding="UTF-8" standalone="no"?><!DOCTYPE svg PUBLIC "-//W3C//DTD SVG 1.1//EN" "http://www.w3.org/Graphics/SVG/1.1/DTD/svg11.dtd"><svg width="100%" height="100%" viewBox="0 0 1095 318" version="1.1" xmlns="http://www.w3.org/2000/svg" xmlns:xlink="http://www.w3.org/1999/xlink" xml:space="preserve" xmlns:serif="http://www.serif.com/" style="fill-rule:evenodd;clip-rule:evenodd;stroke-linejoin:round;stroke-miterlimit:2;"><g><path d="M31.407,33.541c-0.947,-1.617 -1.657,-3.378 -2.103,-5.216c-2.288,-9.418 2.836,-18.869 11.35,-20.937c0.004,-0.001 0.009,-0.002 0.014,-0.003l28.712,-6.974c6.674,-1.628 13.795,1.681 17.6,8.178l92.914,159.236c0.947,1.617 1.657,3.378 2.103,5.216c2.288,9.418 -2.836,18.869 -11.35,20.937c-0.004,0.001 -0.009,0.002 -0.014,0.004l-28.712,6.973c-6.674,1.628 -13.795,-1.681 -17.6,-8.178l-92.914,-159.236Zm-28.758,116.067c-0.947,-1.617 -1.657,-3.378 -2.104,-5.216c-2.287,-9.418 2.837,-18.869 11.351,-20.937c0.004,-0.001 0.009,-0.002 0.014,-0.003l28.712,-6.974c6.674,-1.628 13.795,1.681 17.6,8.178l92.914,159.236c0.947,1.617 1.657,3.378 2.103,5.216c2.288,9.418 -2.836,18.869 -11.35,20.937c-0.005,0.001 -0.009,0.002 -0.014,0.003l-28.712,6.974c-6.674,1.628 -13.795,-1.681 -17.6,-8.178l-92.914,-159.236Z" style="fill:url(#_Radial1);"/><text x="242.582px" y="311.993px" style="font-family:'Arial-BoldMT', 'Arial', sans-serif;font-weight:700;font-size:428.545px;fill:#fff;">Selll</text></g><defs><radialGradient id="_Radial1" cx="0" cy="0" r="1" gradientUnits="userSpaceOnUse" gradientTransform="matrix(2.97119,181.081,89.2085,2.76958,46.0487,187.881)"><stop offset="0" style="stop-color:#ec504b;stop-opacity:1"/><stop offset="0.53" style="stop-color:#f0654b;stop-opacity:1"/><stop offset="1" style="stop-color:#ffaa49;stop-opacity:1"/></radialGradient></defs></svg>