<svg width="560" height="582" viewBox="0 0 560 582" fill="none" xmlns="http://www.w3.org/2000/svg">
<ellipse cx="262.5" cy="316.5" rx="168.5" ry="159.5" fill="#D9D9D9" fill-opacity="0.1"/>
<path d="M526.701 30.3496H211.971V284.47H526.701V30.3496Z" fill="#372115"/>
<path opacity="0.5" d="M265.41 37.4805H221.51C220.179 37.4805 219.1 38.5595 219.1 39.8905C219.1 41.2215 220.179 42.3005 221.51 42.3005H265.41C266.741 42.3005 267.82 41.2215 267.82 39.8905C267.82 38.5595 266.741 37.4805 265.41 37.4805Z" fill="#B5B5B5"/>
<path d="M211.971 52.4609H526.701" stroke="#B1B1B1" stroke-width="0.75" stroke-miterlimit="10"/>
<path opacity="0.16" d="M314.17 75.3906H245.48V144.081H314.17V75.3906Z" fill="#B5B5B5" stroke="#B1B1B1" stroke-width="0.75" stroke-miterlimit="10"/>
<path opacity="0.16" d="M400.049 75.3906H331.359V144.081H400.049V75.3906Z" fill="#B5B5B5" stroke="#B1B1B1" stroke-width="0.75" stroke-miterlimit="10"/>
<path opacity="0.16" d="M485.93 75.3906H417.24V144.081H485.93V75.3906Z" fill="#B5B5B5" stroke="#B1B1B1" stroke-width="0.75" stroke-miterlimit="10"/>
<path opacity="0.16" d="M314.17 168.08H245.48V236.77H314.17V168.08Z" fill="#B5B5B5" stroke="#B1B1B1" stroke-width="0.75" stroke-miterlimit="10"/>
<path opacity="0.16" d="M400.049 168.08H331.359V236.77H400.049V168.08Z" fill="#B5B5B5" stroke="#B1B1B1" stroke-width="0.75" stroke-miterlimit="10"/>
<path opacity="0.16" d="M485.93 168.08H417.24V236.77H485.93V168.08Z" fill="#B5B5B5" stroke="#B1B1B1" stroke-width="0.75" stroke-miterlimit="10"/>
<path opacity="0.43" d="M279.421 146.66H245.631V149.07H279.421V146.66Z" fill="#B5B5B5"/>
<path opacity="0.43" d="M269.891 150.92H245.631V153.33H269.891V150.92Z" fill="#B5B5B5"/>
<path opacity="0.43" d="M365.149 146.66H331.359V149.07H365.149V146.66Z" fill="#B5B5B5"/>
<path opacity="0.43" d="M355.619 150.92H331.359V153.33H355.619V150.92Z" fill="#B5B5B5"/>
<path opacity="0.43" d="M450.899 146.66H417.109V149.07H450.899V146.66Z" fill="#B5B5B5"/>
<path opacity="0.43" d="M441.369 150.92H417.109V153.33H441.369V150.92Z" fill="#B5B5B5"/>
<path opacity="0.43" d="M450.899 239.83H417.109V242.24H450.899V239.83Z" fill="#B5B5B5"/>
<path opacity="0.43" d="M441.369 244.1H417.109V246.51H441.369V244.1Z" fill="#B5B5B5"/>
<path opacity="0.43" d="M365.149 239.83H331.359V242.24H365.149V239.83Z" fill="#B5B5B5"/>
<path opacity="0.43" d="M355.619 244.1H331.359V246.51H355.619V244.1Z" fill="#B5B5B5"/>
<path opacity="0.43" d="M279.421 239.83H245.631V242.24H279.421V239.83Z" fill="#B5B5B5"/>
<path opacity="0.43" d="M269.891 244.1H245.631V246.51H269.891V244.1Z" fill="#B5B5B5"/>
<ellipse cx="324.5" cy="136.5" rx="15.5" ry="16.5" fill="#E59942"/>
<ellipse cx="407.5" cy="105" rx="15.5" ry="15" fill="#FF4133"/>
<ellipse cx="491" cy="257" rx="15" ry="14" fill="#2FB37C"/>
<path d="M381.208 219.007C382.348 226.007 385.398 246.787 386.468 254.087C386.515 254.414 386.492 254.747 386.402 255.065C386.312 255.383 386.157 255.678 385.946 255.933C385.735 256.187 385.473 256.394 385.177 256.541C384.882 256.689 384.558 256.772 384.228 256.787L370.298 257.487C369.733 257.513 369.178 257.337 368.731 256.991C368.283 256.645 367.974 256.151 367.858 255.597L361.048 222.597C360.985 222.286 360.984 221.966 361.046 221.654C361.108 221.343 361.231 221.047 361.409 220.785C361.587 220.522 361.816 220.297 362.082 220.124C362.348 219.951 362.646 219.833 362.958 219.777L378.458 217.037C378.769 216.981 379.087 216.988 379.395 217.058C379.702 217.127 379.993 217.258 380.249 217.441C380.506 217.625 380.723 217.858 380.887 218.127C381.052 218.396 381.161 218.695 381.208 219.007Z" fill="#110C0A"/>
<path fill-rule="evenodd" clip-rule="evenodd" d="M249.262 177.49C244.654 172.081 241.536 165.453 242.057 158.025C243.558 136.625 273.349 141.333 279.143 152.134C284.938 162.935 284.25 190.333 276.76 192.263C273.774 193.033 267.411 191.147 260.935 187.244L265 216H241L249.262 177.49Z" fill="#673B22"/>
<path fill-rule="evenodd" clip-rule="evenodd" d="M269.663 140.37C266.384 139.37 261.623 139.031 259.62 139.26C260.76 136.531 261.212 133.49 260.843 130.529C260.485 127.652 259.199 125.202 258.01 122.635C257.462 121.452 256.841 120.275 255.915 119.37C254.972 118.448 253.778 117.84 252.526 117.549C251.244 117.252 249.905 117.277 248.621 117.547C248.054 117.666 247.544 117.925 246.987 118.07C246.417 118.218 246.141 117.861 245.727 117.502C244.729 116.638 243.267 116.211 242.006 116.059C240.59 115.887 239.121 116.101 237.771 116.566C236.457 117.019 235.194 117.755 234.244 118.827C233.821 119.304 233.437 119.847 233.188 120.446C233.085 120.692 233.068 120.838 232.823 120.928C232.596 121.012 232.33 121.014 232.096 121.094C229.83 121.861 227.893 123.612 226.838 125.86C226.223 127.171 225.931 129.48 226.011 132.068C226.091 134.656 228.428 141.408 230.613 143.871C232.564 146.07 235.431 147.52 238.199 148.155C236.362 150.255 235.139 152.878 234.235 155.547C233.253 158.445 232.645 161.457 232.421 164.525C232.207 167.44 232.188 170.524 232.871 173.377C233.51 176.045 234.878 178.234 237.16 179.622C238.206 180.258 239.331 180.736 240.462 181.173C241.577 181.603 242.696 182.022 243.864 182.263C246.075 182.72 248.622 182.642 250.325 180.882C250.938 180.248 251.613 179.451 252.061 178.676C252.222 178.397 252.319 178.215 252.124 177.943C251.889 177.616 251.51 177.366 251.209 177.111C249.493 175.656 248.43 173.713 248.162 171.405C247.89 169.063 248.52 166.039 250.797 165.017C253.608 163.755 256.704 165.204 259.202 166.554C260.264 162.806 262.445 159.431 265.863 157.712C269.645 155.811 273.984 155.588 277.871 153.956C278.884 153.531 279.915 153.048 280.661 152.182C280.972 151.82 281.338 151.35 281.462 150.871C281.626 150.242 281.22 149.715 280.906 149.224C279.245 146.624 272.943 141.37 269.663 140.37Z" fill="black"/>
<path fill-rule="evenodd" clip-rule="evenodd" d="M235 299L309.306 423.227L365.015 528.25H377.014L283.674 299L235 299Z" fill="#784931"/>
<path fill-rule="evenodd" clip-rule="evenodd" d="M357.678 523.402C356.559 526.388 356 528.623 356 530.106C356 531.909 356.3 534.54 356.901 538C358.993 538 377.794 538 413.303 538C414.769 533.155 413.923 530.539 410.765 530.152C407.607 529.766 404.984 529.417 402.895 529.106L376.68 517.419C376.176 517.194 375.584 517.421 375.359 517.925C375.356 517.934 375.352 517.942 375.348 517.951L373.663 522.039C370.74 523.403 368.364 524.085 366.537 524.085C365.052 524.085 363.001 523.485 360.384 522.286C359.38 521.825 358.193 522.266 357.733 523.27C357.713 523.313 357.695 523.357 357.678 523.402Z" fill="#E4E4E4"/>
<path fill-rule="evenodd" clip-rule="evenodd" d="M349.544 511.433L372.684 504.433C362.545 474.125 350.119 440.772 335.406 404.374C320.692 367.977 304.891 332.852 288 299H222.645C241.423 341.821 261.33 380.729 282.366 415.725C303.403 450.721 325.795 482.624 349.544 511.433Z" fill="#DB2721"/>
<path fill-rule="evenodd" clip-rule="evenodd" d="M230.117 299C223.104 342.654 209.578 398.427 208.301 400.149C207.45 401.296 176.813 411.562 116.391 430.947L118.983 441.528C191.037 431.132 229.003 423.066 232.882 417.331C238.699 408.728 267.749 340.763 279.001 299H230.117Z" fill="#673B22"/>
<path fill-rule="evenodd" clip-rule="evenodd" d="M137.631 421.8L142.196 438.842C196.088 443.569 229.109 440.153 241.259 428.596C253.409 417.039 267.256 373.84 282.8 299H220.479C210.631 360.284 205.125 392.212 203.962 394.785C202.798 397.357 180.688 406.363 137.631 421.8Z" fill="#FF4133"/>
<path fill-rule="evenodd" clip-rule="evenodd" d="M119.351 426.539C116.215 425.956 113.918 425.793 112.457 426.05C110.682 426.363 108.142 427.116 104.84 428.309C105.203 430.369 108.468 448.884 114.634 483.853C119.66 484.455 122.089 483.168 121.921 479.991C121.754 476.814 121.642 474.17 121.586 472.059L128.543 444.213C128.676 443.677 128.351 443.134 127.815 443C127.806 442.998 127.796 442.996 127.787 442.994L123.469 442.044C121.618 439.402 120.534 437.181 120.217 435.381C119.959 433.919 120.193 431.795 120.92 429.01C121.199 427.941 120.559 426.849 119.49 426.57C119.444 426.558 119.398 426.547 119.351 426.539Z" fill="#E4E4E4"/>
<path fill-rule="evenodd" clip-rule="evenodd" d="M285.639 236.701L320.348 217.691C326.12 210.836 331.808 205.513 337.41 201.721C339.121 201.006 342.115 200.574 339.315 205.542C336.516 210.511 333.795 215.864 335.221 217.395C336.647 218.925 340.204 216.787 341.905 219.33C343.039 221.026 336.964 223.705 323.677 227.366L298.456 250.459L285.639 236.701ZM340.001 252.741L355.247 244.365C357.386 236.225 359.944 232.129 362.919 232.078C365.205 231.015 361.224 241.301 365.557 240.409C369.89 239.517 380.465 231.652 382.287 233.249C384.983 235.611 382.579 242.865 379.747 246.474C374.454 253.219 370.071 255.525 359.239 258.545C353.575 260.124 347.452 263.29 340.869 268.041L340.001 252.741Z" fill="#673B22"/>
<path fill-rule="evenodd" clip-rule="evenodd" d="M268.735 232.466C280.893 232.337 297.105 229.769 314.404 218.789L321.197 233.939C309.265 245.781 292.487 255.51 277.817 255.098C266.257 254.773 260.348 240.789 268.735 232.466Z" fill="#FFB35F"/>
<path fill-rule="evenodd" clip-rule="evenodd" d="M285.105 256.761C298.012 259.98 319.656 256.184 350.037 245.373C357.572 260.964 361.056 272.078 360.487 278.717C334.425 292.331 312.087 298.401 293.684 298.802C294.269 309.721 292.94 320.112 288.475 329.606C279.295 349.124 225.546 331.048 207.474 334.606C196.156 297.851 218.039 282.914 218.056 259.397C218.076 233.642 238.755 194 241.798 194L269.544 194C271.075 213.669 278.781 235.346 285.105 256.761Z" fill="#E59942"/>
</svg>
