<svg width="581" height="480" viewBox="0 0 581 480" fill="none" xmlns="http://www.w3.org/2000/svg">
<ellipse cx="227.5" cy="187.5" rx="168.5" ry="159.5" fill="#D9D9D9" fill-opacity="0.1"/>
<path d="M485.484 450.963C438.433 463.834 388.629 451.821 339.861 450.39C317.551 449.747 295.205 451.32 272.931 452.464C237.714 454.252 202.425 454.967 167.172 455.646C156.446 455.861 145.363 456.004 135.459 451.856C133.099 450.855 130.454 448.889 131.097 446.386C131.741 443.776 135.209 443.383 137.89 443.526C185.299 445.886 232.744 443.955 280.117 441.845C327.705 439.736 375.4 437.483 423.023 439.235C435.823 439.7 448.766 441.452 461.53 441.345C470.575 441.309 480.193 442.489 485.484 450.963Z" fill="url(#paint0_linear_428_3330)"/>
<path d="M485.484 450.963C438.433 463.834 388.629 451.821 339.861 450.39C317.551 449.747 295.205 451.32 272.931 452.464C237.714 454.252 202.425 454.967 167.172 455.646C156.446 455.861 145.363 456.004 135.459 451.856C133.099 450.855 130.454 448.889 131.097 446.386C131.741 443.776 135.209 443.383 137.89 443.526C185.299 445.886 232.744 443.955 280.117 441.845C327.705 439.736 375.4 437.483 423.023 439.235C435.823 439.7 448.766 441.452 461.53 441.345C470.575 441.309 480.193 442.489 485.484 450.963Z" fill="url(#paint1_linear_428_3330)"/>
<path d="M366.286 197.575C366.894 199.184 367.537 200.793 368.646 202.116C369.861 203.546 371.577 204.44 373.258 205.298C385.664 211.698 398.071 218.062 410.477 224.462C412.015 221.78 413.552 219.063 415.125 216.381C405.472 209.052 395.854 201.758 386.201 194.429C385.021 193.535 383.841 192.641 382.875 191.533C381.41 189.817 380.516 187.671 379.694 185.562C374.867 173.584 370.076 161.571 365.249 149.594C363.569 145.375 361.674 140.906 357.92 138.332C354.416 135.936 347.659 135.936 345.978 140.584C344.262 145.339 349.017 152.883 350.662 157.138C355.882 170.581 361.102 184.096 366.286 197.575Z" fill="#00719A"/>
<path d="M405.824 227.396C412.046 220.567 430.852 219.53 437.609 226.323C447.012 235.762 429.565 241.912 423.022 243.628C417.516 245.094 415.406 236.084 420.734 235.333C423.737 234.904 426.812 234.511 429.743 233.688C432.103 233.045 434.248 231.794 431.031 229.756C429.672 228.898 426.454 229.112 424.881 229.005C418.767 228.647 412.26 230.399 406.325 229.255C405.467 229.112 405.288 227.968 405.824 227.396Z" fill="#404040"/>
<path d="M376.83 436.587C368.32 429.222 362.385 419.497 360.741 407.484C357.129 380.741 370.179 352.924 394.528 339.588C413.262 329.327 439.791 324.215 460.063 334.762C496.854 353.89 503.54 415.85 471.29 440.663C446.692 459.505 401.249 457.718 376.83 436.587Z" fill="#333333"/>
<path d="M381.232 430.683C373.437 423.997 367.931 415.238 366.394 404.404C362.962 380.307 374.796 355.315 396.999 343.409C414.089 334.256 438.33 329.787 456.921 339.333C490.673 356.709 497.073 412.556 467.648 434.723C445.23 451.635 403.649 449.847 381.232 430.683Z" fill="#404040"/>
<path d="M328.561 301.65C334.532 301.865 340.109 303.652 345.365 306.441C346.223 306.906 347.153 307.442 347.582 308.336C348.011 309.194 347.975 310.231 347.904 311.196C347.403 318.561 346.903 325.927 346.402 333.328C346.009 339.227 345.58 345.162 344.471 351.026C343.434 356.567 340.753 361.251 339.502 366.614C336.57 379.163 332.53 391.427 328.49 403.619C326.523 403.404 324.592 403.19 322.626 402.975C322.626 402.975 325.45 387.351 325.665 386.35C326.38 382.667 327.882 379.342 328.525 375.552C329.276 371.262 329.848 366.972 330.384 362.645C330.921 358.355 331.493 354.065 331.135 349.774C330.921 347.128 330.349 344.483 329.777 341.908C326.952 328.93 324.128 315.916 321.303 302.937C323.591 301.9 326.058 301.579 328.561 301.65Z" fill="#744F3C"/>
<path d="M335.316 216.383C336.103 217.277 337.176 218.85 337.319 220.066C340.858 247.739 345.613 278.63 349.117 306.303C339.214 309.128 328.917 310.701 318.62 310.951C300.564 277.629 282.151 243.27 277.217 205.479C296.202 209.769 315.152 214.059 334.137 218.35C335.352 218.6 334.494 215.418 335.316 216.383Z" fill="#737373"/>
<path d="M178.902 375.806C181.333 367.154 186.303 359.503 194.419 354.176C212.474 342.27 236.894 341.948 254.699 354.783C268.428 364.651 281.049 381.884 280.298 400.083C278.94 433.119 236.608 459.469 207.862 444.953C185.981 433.87 171.894 400.655 178.902 375.806Z" fill="#333333"/>
<path d="M183.651 377.203C185.796 369.373 190.229 362.473 197.452 357.682C213.541 346.956 235.35 346.705 251.296 358.325C263.56 367.263 274.858 382.852 274.25 399.263C273.106 429.117 235.35 452.821 209.679 439.664C190.086 429.653 177.466 399.62 183.651 377.203Z" fill="#404040"/>
<path d="M224.416 386.316C224.702 386.245 224.988 386.173 225.274 386.066C234.641 382.777 244.795 384.779 254.52 385.208C266.247 385.744 278.296 380.095 289.987 379.952C299.891 379.845 305.325 376.77 306.362 367.724C306.827 363.72 308.722 359.859 309.294 355.783C309.544 354.031 312.19 350.17 313.727 347.166C314.764 345.164 316.48 343.591 318.626 342.912C327.314 340.123 332.963 339.551 342.151 334.974C350.232 330.97 357.954 326.322 366.106 322.425C374.222 318.528 383.518 314.667 384.376 303.869C384.555 301.688 384.269 299.507 383.625 297.433C380.944 288.888 373.757 283.418 366.106 279.7C348.837 271.333 328.994 270.833 309.866 269.617C297.996 268.866 284.946 268.151 273.755 263.825C269.787 262.288 262.064 254.458 268.857 251.526C272.218 250.096 281.657 253.349 285.304 253.921C290.988 254.815 296.637 255.781 302.322 256.71C325.49 260.572 348.694 264.505 372.113 266.471C385.949 267.615 401.109 268.616 411.191 278.162C422.132 288.495 423.276 306.122 417.984 320.208C417.948 320.316 417.877 320.423 417.841 320.53C417.376 323.426 416.197 326.108 414.588 327.681C414.302 327.967 413.944 328.253 413.658 328.539C412.621 330.005 411.477 331.363 410.119 332.543C408.688 333.795 407.115 334.796 405.435 335.654C399.964 340.016 394.208 344.056 388.452 348.024C368.931 361.503 349.409 375.018 329.888 388.497C325.133 391.786 320.199 395.147 314.55 396.399C308.329 397.793 301.857 396.47 295.565 395.469C276.008 392.323 256.129 392.072 236.286 392.037C232.067 393.431 227.812 394.826 223.593 396.256C225.166 393.324 222.7 389.141 224.416 386.316Z" fill="#EC504B"/>
<path d="M417.554 239.047C417.983 236.401 425.706 237.509 426.099 240.084C427.815 252.061 427.065 278.947 427.208 290.818C427.386 303.152 427.565 315.488 427.637 327.858C427.815 351.384 428.817 375.16 439.972 399.222C442.009 403.584 428.316 403.655 426.35 399.329C415.516 375.16 414.873 351.348 415.195 327.787C415.373 315.523 415.731 303.26 416.053 290.961C416.41 278.662 415.588 251.167 417.554 239.047Z" fill="#EC504B"/>
<path d="M348.296 408.806C348.94 409.95 348.618 411.309 346.33 412.703C339.965 416.529 331.528 416.279 325.378 412.096C324.341 411.381 323.34 410.558 322.196 410.022C320.051 408.985 317.19 408.806 316.082 406.661C314.902 404.409 316.44 401.691 317.941 399.653C319.264 397.866 319.944 396.185 322.375 397.043C326.844 398.652 331.313 400.226 335.532 402.407C338.249 403.801 340.931 405.445 343.863 406.161C345.686 406.59 347.581 407.555 348.296 408.806Z" fill="white"/>
<path d="M306.714 385.139C307.214 383.637 308.144 382.315 309.538 381.421C314.508 378.239 321.981 378.239 325.484 383.816C329.238 389.787 327.451 397.903 321.373 401.192C318.834 402.587 315.331 403.838 312.435 403.159C309.145 402.408 306.964 400.084 305.212 397.188C302.602 392.862 303.925 388.5 306.714 385.139Z" fill="#4D4D4D"/>
<path d="M310.114 354.535C313.689 357.86 317.086 361.507 319.696 365.654C320.768 367.335 318.301 369.301 317.014 367.728C313.975 364.045 310.9 360.577 307.182 357.538C305.037 355.822 308.004 352.604 310.114 354.535Z" fill="#4D4D4D"/>
<path d="M319.587 366.008C319.051 374.41 317.513 382.776 316.083 391.035C315.654 393.61 311.685 392.501 312.15 389.963C313.688 381.883 314.76 373.624 316.405 365.579C316.762 363.791 319.694 364.149 319.587 366.008Z" fill="#4D4D4D"/>
<path d="M321.553 398.079C322.375 400.903 322.768 403.835 323.09 406.767C323.376 409.162 322.947 412.559 323.698 415.097C326.987 414.847 330.169 414.74 333.423 413.882C337.105 412.916 338.679 418.851 334.996 419.781C330.598 420.889 325.879 421.64 321.41 420.532C320.337 420.282 319.479 419.102 319.515 417.922C319.622 415.169 319.05 412.273 318.943 409.484C318.8 405.98 318.263 402.584 317.763 399.151C317.441 396.649 320.802 395.54 321.553 398.079Z" fill="#4D4D4D"/>
<path d="M447.264 392.285C447.157 395.861 446.299 399.508 444.154 402.404C442.33 404.871 439.613 406.587 436.717 407.588C431.783 409.304 426.17 408.875 421.557 406.444C416.945 404.013 413.406 399.651 411.976 394.645C411.546 393.108 411.296 391.499 411.618 389.926C413.191 381.81 423.989 374.23 432.033 374.266C441.4 374.266 447.514 383.776 447.264 392.285Z" fill="#EC504B"/>
<path d="M246.579 397.934C246.471 401.509 245.613 405.156 243.468 408.052C241.645 410.519 238.927 412.235 236.031 413.236C231.098 414.953 225.484 414.523 220.872 412.092C216.26 409.661 212.72 405.299 211.29 400.293C210.861 398.756 210.611 397.147 210.933 395.574C212.506 387.458 223.303 379.878 231.348 379.914C240.715 379.914 246.829 389.425 246.579 397.934Z" fill="#EC504B"/>
<path d="M330.995 359.212C326.848 357.567 323.308 354.242 321.342 350.095C332.676 337.974 344.081 323.923 350.624 308.263C351.339 306.583 351.947 304.688 351.446 302.936C350.946 301.22 349.516 299.969 348.121 298.896C346.012 297.251 335.286 291.531 335.607 289.314C335.893 287.348 342.222 283.772 343.831 282.521C347.227 279.875 349.551 278.552 353.699 277.373C354.199 277.23 354.7 277.086 355.2 277.194C355.629 277.301 355.987 277.551 356.344 277.802C360.885 281.234 364.425 285.918 366.999 291.102C368.179 293.497 369.18 296.072 369.466 298.753C370.431 307.548 362.959 313.912 358.025 319.883C351.589 327.677 345.618 335.865 339.648 344.052C336.144 348.772 332.676 353.599 330.995 359.212Z" fill="#744F3C"/>
<path d="M280.943 206.94C277.117 205.867 273.148 207.941 271.825 211.802C265.854 229.214 269.93 250.344 282.551 263.823C289.38 271.117 298.14 276.087 306.756 280.949C316.052 286.205 325.384 291.46 334.68 296.716C339.757 289.709 345.871 283.487 352.664 278.339C353.522 277.695 354.416 277.016 354.845 275.979C355.596 274.084 354.38 272.011 353.2 270.366C347.372 262.25 340.794 254.635 336.11 245.768C331.391 236.901 328.637 226.389 331.14 216.7C314.193 214.841 297.425 211.552 280.943 206.94Z" fill="#6B6B6B"/>
<path d="M340.185 370.584C340.292 371.907 339.434 372.98 336.788 373.159C329.459 373.659 321.915 369.547 318.125 362.969C317.481 361.86 316.909 360.645 316.123 359.644C314.621 357.749 312.118 356.247 311.975 353.816C311.832 351.242 314.371 349.526 316.587 348.382C318.518 347.38 319.841 346.2 321.664 348.06C325.025 351.528 328.422 355.032 331.318 358.929C333.213 361.432 334.929 364.149 337.289 366.151C338.754 367.402 340.077 369.154 340.185 370.584Z" fill="white"/>
<path d="M405.579 250.918C413.052 251.275 420.667 251.776 428.175 251.49C429.891 251.418 431.608 251.311 433.324 251.168C438.258 251.454 443.12 246.878 437.006 242.659C434.682 240.192 426.53 241.872 423.777 242.516C419.201 243.588 417.235 236.545 421.847 235.472C431.143 233.291 454.454 235.115 447.625 250.417C441.333 264.575 415.626 258.104 405.15 253.957C403.684 253.349 403.72 250.846 405.579 250.918Z" fill="#404040"/>
<path d="M381.334 151.521C374.183 158.135 372.503 161.675 367.891 170.398C364.637 176.584 362.099 183.162 358.738 189.276C353.983 197.964 347.654 205.58 341.362 213.159C339.288 215.626 337.179 218.165 334.39 219.702C332.423 220.775 330.207 221.311 327.99 221.669C307.503 224.958 286.838 217.843 267.996 226.603C262.526 200.181 285.229 177.621 300.603 158.242C303.106 155.096 305.179 151.985 308.147 149.268C311.258 146.408 314.44 143.691 317.765 141.116C324.272 136.039 331.172 131.499 338.394 127.566C347.869 122.382 358.023 120.236 367.033 127.959C373.826 133.751 379.153 142.761 381.334 151.521Z" fill="#066984"/>
<path d="M405.609 95.2481C408.326 98.6089 407.933 103.507 407.147 107.726C406.396 111.945 405.395 116.164 403.178 119.775C401.641 122.278 399.567 124.351 397.457 126.353C394.776 128.928 391.701 131.18 389.198 133.897C386.946 136.293 385.194 138.259 381.654 138.545C380.796 138.617 379.902 138.581 379.08 138.331C377.114 137.687 375.719 135.864 374.575 134.076C372.752 131.144 370.356 128.463 369.749 125.066C369.105 121.705 371.071 118.559 371.143 115.341C371.214 112.41 370.392 109.764 371.179 106.796C371.608 105.152 372.394 103.65 373.324 102.256C378.008 95.3552 386.41 91.9587 394.633 91.5654C398.566 91.3866 403.035 92.066 405.609 95.2481Z" fill="#744F3C"/>
<path d="M414.909 235.261C420.021 233.759 424.598 230.434 427.637 225.965C401.859 197.72 380.049 165.9 358.347 134.258C354.056 135.33 349.623 136.475 346.048 139.156C342.472 141.838 339.898 146.414 340.828 150.955C341.579 154.53 344.26 157.319 346.798 159.893C370.61 183.919 393.349 209.09 414.909 235.261Z" fill="#00719A"/>
<path d="M432.139 230.037C435.428 230.752 438.754 231.467 441.721 233.04C442.722 233.577 443.688 234.22 444.26 235.15C444.867 236.079 445.01 237.402 444.367 238.332C442.972 240.37 439.361 239.154 437.681 240.942C437.288 241.371 437.037 241.943 436.644 242.372C435.75 243.266 434.32 243.302 433.033 243.23C430.209 243.123 427.277 242.98 424.702 241.8C421.413 240.298 419.125 237.295 416.98 234.363C416.765 234.041 416.515 233.72 416.443 233.362C416.336 232.718 416.694 232.075 417.123 231.574C418.732 229.536 421.806 227.642 424.488 227.82C425.561 227.892 426.276 228.464 427.241 228.857C428.814 229.465 430.53 229.679 432.139 230.037Z" fill="#744F3C"/>
<path d="M413.124 103.437C415.484 100.505 416.377 96.2859 415.376 92.5676C414.411 88.9565 411.872 86.0605 409.048 83.8437C406.223 81.627 403.041 79.9823 400.038 77.9444C395.641 74.9768 389.241 74.7624 386.023 70.4362C386.523 69.9357 385.594 69.8642 386.023 70.4362C386.309 69.0061 385.737 71.8306 386.023 70.4362C384.7 68.6843 382.519 66.8596 380.553 66.0373C376.834 64.3926 368.396 77.1808 365.214 74.4993C365.678 84.5102 374.224 83.6649 380.553 91.1016C385.129 96.5003 390.778 100.755 396.928 103.901C402.648 106.762 408.118 109.586 413.124 103.437Z" fill="black"/>
<path d="M379.093 105.922C378.613 104.889 377.912 103.658 376.769 103.698C375.33 103.738 374.776 105.763 375.182 107.153C375.588 108.543 376.51 109.813 376.363 111.283C376.215 112.553 375.33 113.586 374.555 114.579C371.677 118.391 370.276 123.275 370.718 128C368.283 120.495 365.074 113.268 361.163 106.478C359.466 103.539 357.621 100.641 356.736 97.3447C355.961 94.4856 355.887 91.4676 356.109 88.5292C356.367 85.1142 356.994 81.62 358.95 78.8006C361.938 74.4723 367.619 72.5663 372.747 73.0825C377.912 73.5987 382.598 76.1798 386.693 79.2771C389.866 81.6994 400.602 89.4824 395.769 94.6843C393.223 97.4242 388.206 95.677 384.996 97.186C381.639 98.6949 379.167 102.229 379.093 105.922Z" fill="black"/>
<path fill-rule="evenodd" clip-rule="evenodd" d="M215.078 66.2902C218.525 78.9923 223.018 107.544 218.434 112.022H189.434C189.431 111.971 189.428 111.92 189.425 111.868C178.676 110.679 170.316 101.566 170.316 90.5V69.5C170.316 57.6259 179.942 48 191.816 48H193.816C204.6 48 213.529 55.9385 215.078 66.2902Z" fill="black"/>
<path fill-rule="evenodd" clip-rule="evenodd" d="M181.579 86.4901C176.971 81.0814 173.852 74.4529 174.373 67.0255C175.875 45.625 205.665 50.3328 211.46 61.1339C217.255 71.9351 216.566 99.333 209.077 101.263C206.09 102.033 199.727 100.147 193.252 96.2443L197.316 125H173.316L181.579 86.4901Z" fill="#705042"/>
<path fill-rule="evenodd" clip-rule="evenodd" d="M188.066 82.8748C189.172 94.7528 188.729 108.317 185.434 111.537H156.434C154.818 83.4635 170.434 94.3349 170.434 67.9028C171.407 66.9515 172.327 66.01 173.238 65.1981L173.205 64.4207C178.227 54.1402 184.598 49 192.318 49C203.898 49 207.553 54.3883 210.665 58.9631C208.338 66.9482 199.307 68.1322 191.282 73.1095C190.336 72.341 189.13 71.8804 187.816 71.8804C184.779 71.8804 182.316 74.3428 182.316 77.3804C182.316 80.418 184.779 82.8804 187.816 82.8804C187.9 82.8804 187.984 82.8785 188.066 82.8748Z" fill="black"/>
<path fill-rule="evenodd" clip-rule="evenodd" d="M134.725 306.088C158.714 312.797 179.411 316.152 196.816 316.152C214.222 316.152 230.388 310.986 245.317 300.653C221.841 293.766 202.508 290.322 187.317 290.322C172.126 290.322 154.595 295.577 134.725 306.088Z" fill="black"/>
<path fill-rule="evenodd" clip-rule="evenodd" d="M217.583 325.824C217.352 325.477 217.157 325.098 217.002 324.689C213.795 316.208 162.433 224.726 157.316 208H215.142C219.033 220.717 236.543 300.52 239.008 316.442C246.783 341.557 262.792 422.895 264.835 428.53C266.985 434.458 254.889 440.633 251.665 433.346C246.536 421.75 234.315 389.665 228.874 370.074C223.772 351.708 219.618 335.184 217.583 325.824Z" fill="#745749"/>
<path fill-rule="evenodd" clip-rule="evenodd" d="M170.274 336.994C146.793 342.928 60.9012 353.658 55.007 355.341C48.9437 357.072 43.6273 344.574 51.1219 341.867C63.0471 337.559 95.9063 327.606 115.829 323.544C131.854 320.277 146.476 317.611 156.294 316.05C155.462 288.473 151.66 222.294 154.152 208H205.317C202.928 221.707 182.727 321.718 178.973 331.729C177.781 335.302 174.226 336.882 170.274 336.994Z" fill="#705042"/>
<path fill-rule="evenodd" clip-rule="evenodd" d="M51.6672 338.539C48.5318 337.956 46.234 337.793 44.7739 338.05C42.998 338.363 40.4587 339.116 37.156 340.309C37.5193 342.369 40.7839 360.884 46.9501 395.853C51.9765 396.455 54.4057 395.168 54.2379 391.991C54.07 388.814 53.958 386.17 53.9019 384.059L60.859 356.213C60.9928 355.677 60.667 355.134 60.1312 355C60.122 354.998 60.1128 354.996 60.1036 354.994L55.7855 354.044C53.9346 351.402 52.8505 349.181 52.5331 347.381C52.2753 345.919 52.5098 343.795 53.2367 341.01C53.5156 339.941 52.8753 338.849 51.8065 338.57C51.7605 338.558 51.714 338.547 51.6672 338.539Z" fill="#E4E4E4"/>
<path fill-rule="evenodd" clip-rule="evenodd" d="M247.995 432.402C246.876 435.388 246.316 437.623 246.316 439.106C246.316 440.909 246.617 443.54 247.218 447C249.31 447 268.11 447 303.619 447C305.085 442.155 304.239 439.539 301.081 439.152C297.923 438.766 295.3 438.417 293.211 438.106L266.996 426.419C266.492 426.194 265.901 426.421 265.676 426.925C265.672 426.934 265.668 426.942 265.665 426.951L263.98 431.039C261.056 432.403 258.681 433.085 256.853 433.085C255.368 433.085 253.317 432.485 250.701 431.286C249.697 430.825 248.51 431.266 248.049 432.27C248.03 432.313 248.011 432.357 247.995 432.402Z" fill="#E4E4E4"/>
<path fill-rule="evenodd" clip-rule="evenodd" d="M154.317 208C176.863 201.549 198.197 201.549 218.317 208C225.317 239.938 242.325 252.614 245.317 301.579C211.317 318.473 169.317 289.531 134.317 306.005C124.317 282.961 138.317 227.465 154.317 208Z" fill="#3B6096"/>
<path fill-rule="evenodd" clip-rule="evenodd" d="M251.318 168.311L290.801 162.925C298.699 158.532 305.965 155.558 312.598 154.003C314.465 153.948 317.435 154.627 313.011 158.315C308.587 162.003 304.098 166.083 304.886 168.051C305.674 170.02 309.789 169.287 310.47 172.315C310.925 174.333 304.247 174.661 290.439 173.299L258.402 186L251.318 168.311ZM127.288 177.45L149.185 177.532C125.174 231.566 112.654 259.857 111.626 262.406C109.312 268.14 114.208 276.874 116.302 281.567C109.482 284.619 110.209 273.317 101.606 277.319C93.7529 280.973 87.7794 287.592 78.7067 281.994C77.5913 281.306 76.369 278.715 79.3223 276.69C86.68 271.645 97.283 262.815 98.7156 259.908C100.669 255.945 110.193 228.459 127.288 177.45Z" fill="#705042"/>
<path fill-rule="evenodd" clip-rule="evenodd" d="M187.268 108L204.413 109.142C208.635 147.343 231.635 171.472 283.129 163.304L289.971 212.498C241.841 218.718 199.631 199.449 190.981 147.278C188.741 133.773 186.973 119.717 187.268 108Z" fill="#FFAA49"/>
<path fill-rule="evenodd" clip-rule="evenodd" d="M178.808 103.016L204.785 108.965C204.785 153.644 219.017 182.15 226.317 215H156.161C155.172 226.351 154.566 238.018 154.249 250H101.719C113.622 186.664 138.747 137.664 177.093 103H178.794L178.808 103.016Z" fill="#E59942"/>
<path fill-rule="evenodd" clip-rule="evenodd" d="M167.231 151.26C165.423 179.101 166.486 200.348 170.421 215.001H156.162C158.12 192.514 161.574 171.267 167.231 151.26Z" fill="black" fill-opacity="0.1"/>
<defs>
<linearGradient id="paint0_linear_428_3330" x1="485.495" y1="447.724" x2="130.959" y2="447.724" gradientUnits="userSpaceOnUse">
<stop stop-color="#4D4D4D"/>
<stop offset="1"/>
</linearGradient>
<linearGradient id="paint1_linear_428_3330" x1="485.495" y1="447.724" x2="130.959" y2="447.724" gradientUnits="userSpaceOnUse">
<stop/>
<stop offset="1"/>
</linearGradient>
</defs>
</svg>
