<svg width="503" height="480" viewBox="0 0 503 480" fill="none" xmlns="http://www.w3.org/2000/svg">
<ellipse cx="213.084" cy="231.546" rx="162.084" ry="153.546" fill="#D9D9D9" fill-opacity="0.1"/>
<path fill-rule="evenodd" clip-rule="evenodd" d="M184.373 86.2997C179.567 80.6589 176.314 73.7461 176.858 66.0001C178.424 43.6816 209.492 48.5914 215.535 59.8558C221.579 71.1203 220.861 99.6934 213.05 101.707C209.935 102.51 203.3 100.543 196.546 96.4723L200.785 126.461H175.756L184.373 86.2997Z" fill="#673B22"/>
<path d="M212.22 56.0061C212.778 56.1934 212.22 53.7946 210.887 52.9174C206.798 50.2271 194.626 46.2455 186.303 47.9733C180.727 49.1308 173.773 52.0362 169.319 55.7398C165.305 59.0786 161.651 64.9648 160.23 70.1361C158.737 75.566 158.173 83.1213 160.23 87.8587C162.679 93.5005 171.354 99.581 171.584 100.389C171.845 101.31 170.82 104.91 170.07 108.704C169.319 112.497 169.661 122.156 170.07 123.731C170.723 126.248 174.227 127.486 175.755 127.668C184.203 128.675 190.327 139.162 192.875 141.845C204.219 153.235 212.137 158.188 216.627 156.705C217.809 156.315 216.037 142.163 214.855 136.097C213.674 130.031 202.083 119.207 201.341 115.64C200.903 113.538 200.83 109.88 200.785 109.713C199.691 102.177 199.88 101.565 198.285 98.4937C196.691 95.4227 195.454 95.2425 195.838 94.348C197.71 89.977 203.732 76.6034 205.099 72.2304C206.727 67.0184 205.957 68.7303 207.636 63.536C208.38 61.2358 209.326 55.0333 212.22 56.0061Z" fill="#89C5CC"/>
<mask id="mask0_433_4910" style="mask-type:luminance" maskUnits="userSpaceOnUse" x="158" y="47" width="60" height="110">
<path d="M212.22 56.0061C212.778 56.1934 212.22 53.7946 210.887 52.9174C206.798 50.2271 194.626 46.2455 186.303 47.9733C180.727 49.1308 173.773 52.0362 169.319 55.7398C165.305 59.0786 161.651 64.9648 160.23 70.1361C158.737 75.566 158.173 83.1213 160.23 87.8587C162.679 93.5005 171.354 99.581 171.584 100.389C171.845 101.31 170.82 104.91 170.07 108.704C169.319 112.497 169.661 122.156 170.07 123.731C170.723 126.248 174.227 127.486 175.755 127.668C184.203 128.675 190.327 139.162 192.875 141.845C204.219 153.235 212.137 158.188 216.627 156.705C217.809 156.315 216.037 142.163 214.855 136.097C213.674 130.031 202.083 119.207 201.341 115.64C200.903 113.538 200.83 109.88 200.785 109.713C199.691 102.177 199.88 101.565 198.285 98.4937C196.691 95.4227 195.454 95.2425 195.838 94.348C197.71 89.977 203.732 76.6034 205.099 72.2304C206.727 67.0184 205.957 68.7303 207.636 63.536C208.38 61.2358 209.326 55.0333 212.22 56.0061Z" fill="white"/>
</mask>
<g mask="url(#mask0_433_4910)">
<path fill-rule="evenodd" clip-rule="evenodd" d="M190.684 56.5879C188.855 62.3926 188.461 65.4911 188.855 73.4224H187.957C186.281 65.9377 187.773 58.8916 189.556 56.5879H190.684ZM166.141 71.5684C169.55 79.8407 171.105 84.7256 180.625 91.4197L179.89 91.9345C170.439 86.5783 167.687 80.1893 165.424 71.913L166.141 71.5684ZM180.148 63.1501C181.697 74.8918 182.149 81.5987 190.215 94.4425L189.357 94.7049C181.055 83.5219 179.739 74.3944 179.347 63.2146L180.148 63.1501ZM171.238 98.0287L171.972 97.1361C181.992 100.274 180.876 106.754 193.495 113.315L192.441 113.954C181.39 109.394 178.807 99.6129 171.238 98.0287Z" fill="black" fill-opacity="0.2"/>
</g>
<path fill-rule="evenodd" clip-rule="evenodd" d="M155.647 212.763C157.528 238.428 278.67 313.99 279.377 316.11C279.691 317.053 267.122 346.838 241.67 405.467L252.259 409.582C291.299 347.49 309.816 313.136 307.81 306.519C304.939 297.047 273.609 265.886 213.818 213.036L155.647 212.763Z" fill="#673B22"/>
<path fill-rule="evenodd" clip-rule="evenodd" d="M244.457 392.229L261.746 398.522C298.203 357.388 312.493 323.448 309.888 306.156C308.151 294.627 276.928 263.518 216.219 212.828L154.408 212.828C156.517 272.265 268.8 316.339 270.302 318.871C271.804 321.404 257.024 346.211 244.457 392.229Z" fill="#4F95E1"/>
<path fill-rule="evenodd" clip-rule="evenodd" d="M237.774 403.446C235.613 405.973 234.268 407.964 233.739 409.417C233.095 411.184 232.451 413.87 231.806 417.475C233.856 418.221 252.281 424.927 287.08 437.593C290.245 433.367 290.349 430.501 287.392 428.996C284.435 427.491 281.988 426.214 280.053 425.164L258.53 404.36C258.116 403.96 257.456 403.971 257.056 404.385C257.049 404.392 257.042 404.399 257.035 404.407L253.926 407.811C250.575 408.105 248.003 407.926 246.212 407.274C244.757 406.745 242.961 405.426 240.825 403.317C240.005 402.508 238.684 402.516 237.875 403.336C237.84 403.371 237.807 403.408 237.774 403.446Z" fill="white"/>
<path fill-rule="evenodd" clip-rule="evenodd" d="M169.576 212.766L115.61 342.321L62.5703 451.85H75.0841L211.994 212.766H169.576Z" fill="#673B22"/>
<path fill-rule="evenodd" clip-rule="evenodd" d="M61.8224 446.791C60.6556 449.906 60.0723 452.236 60.0723 453.783C60.0723 455.663 60.3856 458.408 61.0122 462.016C63.1938 462.016 82.8009 462.016 119.833 462.016C121.362 456.962 120.48 454.234 117.186 453.831C113.893 453.428 111.157 453.064 108.979 452.74L81.6393 440.552C81.1133 440.317 80.4967 440.553 80.2622 441.079C80.2582 441.088 80.2543 441.098 80.2505 441.107L78.4932 445.37C75.4444 446.792 72.967 447.503 71.0609 447.503C69.5123 447.503 67.3736 446.878 64.6448 445.627C63.5976 445.147 62.3596 445.607 61.8796 446.654C61.8589 446.699 61.8398 446.745 61.8224 446.791Z" fill="white"/>
<path fill-rule="evenodd" clip-rule="evenodd" d="M67.3613 429.096L95.1672 434.311C116.667 402.703 206.642 273.099 216.507 212.766H154.605C121.661 256.381 87.8547 396.966 67.3613 429.096Z" fill="#3E88D9"/>
<path fill-rule="evenodd" clip-rule="evenodd" d="M256.591 105.845L296.121 93.9787C303.495 88.2381 310.451 84.0409 316.988 81.387C318.889 81.0292 322.036 81.237 318.103 85.6987C314.17 90.1605 310.234 95.0305 311.357 96.9013C312.48 98.7721 316.571 97.3618 317.755 100.325C318.545 102.301 311.766 103.716 297.419 104.57L266.684 122.658L256.591 105.845ZM253.098 175.539L286.365 199.967C295.387 202.402 302.925 205.431 308.979 209.055C310.409 210.358 312.137 212.996 306.207 212.54C300.276 212.084 294.018 211.871 293.2 213.894C292.381 215.917 295.97 218.336 294.316 221.065C293.213 222.885 288.004 218.322 278.687 207.378L245.744 193.718L253.098 175.539Z" fill="#673B22"/>
<path fill-rule="evenodd" clip-rule="evenodd" d="M201.428 109.753C219.544 143.532 245.74 169.426 283.718 196.343L269.338 212.557C226.934 196.799 204.555 187.292 193.565 155.377C190.806 147.368 188.879 121.834 187.225 108.399L201.428 109.753Z" fill="#E46D69"/>
<path fill-rule="evenodd" clip-rule="evenodd" d="M150.783 222.294H231.086C212.896 166.818 203.604 128.742 203.21 108.068C203.19 107.014 201.243 105.156 200.382 105.4C194.084 107.178 187.344 106.513 180.163 103.404C161.126 134.022 154.543 171.719 150.783 222.294Z" fill="#F2F2F2"/>
<path fill-rule="evenodd" clip-rule="evenodd" d="M187.016 103.453C210.035 103.642 247.381 107.845 290.451 94.0176L294.703 115.265C262.151 136.201 229.189 152.419 200.307 150.116C212.849 203.915 212.271 247.955 184.581 247.955C171.358 247.955 157.086 247.955 141.764 247.955C134.963 202.253 152.836 138.887 169.405 106.925C170.038 105.705 171.385 103.404 174.558 103.404C177.323 103.404 181.47 103.404 187 103.404C187.005 103.42 187.011 103.437 187.016 103.453Z" fill="#EC504B"/>
<path d="M303.62 78.4592H345.17C346.074 78.4592 346.942 78.8185 347.581 79.458C348.221 80.0975 348.58 80.9648 348.58 81.8692V101.219C348.58 102.124 348.221 102.991 347.581 103.63C346.942 104.27 346.074 104.629 345.17 104.629H300.17V81.8792C300.169 81.4272 300.257 80.9794 300.43 80.5619C300.604 80.1444 300.858 79.7655 301.179 79.4472C301.5 79.129 301.881 78.8778 302.3 78.7082C302.719 78.5385 303.168 78.4539 303.62 78.4592Z" fill="#F1F1F1"/>
<path d="M300.2 99.2207L300.17 110.781L310.04 99.2507L300.2 99.2207Z" fill="#F1F1F1"/>
<path d="M332.551 91.2501C332.549 91.6813 332.675 92.1033 332.913 92.4629C333.151 92.8225 333.49 93.1035 333.887 93.2703C334.285 93.4371 334.723 93.4823 335.146 93.4001C335.57 93.3179 335.959 93.1121 336.265 92.8086C336.571 92.5052 336.781 92.1177 336.867 91.6952C336.953 91.2727 336.912 90.8342 336.749 90.4351C336.585 90.036 336.308 89.6942 335.95 89.4531C335.593 89.2119 335.172 89.0821 334.741 89.0801C334.455 89.0788 334.171 89.1339 333.906 89.2422C333.641 89.3506 333.4 89.51 333.196 89.7115C332.993 89.913 332.831 90.1526 332.721 90.4166C332.61 90.6806 332.552 90.9638 332.551 91.2501Z" fill="#B4B4B4"/>
<path d="M323.211 91.2208C323.209 91.6524 323.335 92.0748 323.573 92.4346C323.812 92.7944 324.152 93.0754 324.55 93.242C324.948 93.4085 325.387 93.4531 325.81 93.3701C326.234 93.2871 326.623 93.0803 326.929 92.7758C327.235 92.4713 327.443 92.0829 327.528 91.6598C327.613 91.2366 327.571 90.7978 327.406 90.3989C327.241 89.9999 326.962 89.6589 326.603 89.4189C326.244 89.1789 325.823 89.0508 325.391 89.0508C324.815 89.0534 324.264 89.2825 323.856 89.6886C323.448 90.0947 323.216 90.6452 323.211 91.2208Z" fill="#B4B4B4"/>
<path d="M313.869 91.19C313.871 91.6207 314.001 92.0412 314.241 92.3984C314.482 92.7556 314.823 93.0334 315.222 93.1969C315.62 93.3604 316.058 93.4021 316.481 93.3169C316.903 93.2316 317.29 93.0232 317.594 92.718C317.898 92.4127 318.105 92.0242 318.188 91.6016C318.271 91.179 318.228 90.7412 318.062 90.3435C317.897 89.9457 317.618 89.6058 317.259 89.3667C316.901 89.1276 316.48 89 316.049 89C315.762 89 315.478 89.0567 315.213 89.1669C314.947 89.2771 314.707 89.4385 314.504 89.642C314.302 89.8455 314.141 90.087 314.032 90.3527C313.923 90.6183 313.868 90.9029 313.869 91.19Z" fill="#B4B4B4"/>
<path d="M283 214.121L387.035 236.285L388.112 231.229L284.077 209.065L283 214.121Z" fill="#ECECEC"/>
<path d="M403.165 239.72L438.254 170.757L357.027 153.453L323.776 222.807L403.165 239.72Z" fill="#ECECEC"/>
<path d="M329.823 218.309L402.384 233.767L432.964 173.159L360.021 157.619L329.823 218.309Z" fill="#E1E1E1"/>
<path d="M407.15 181.551H294.39C293.358 181.551 292.337 181.347 291.384 180.952C290.431 180.557 289.565 179.978 288.836 179.248C288.107 178.518 287.529 177.651 287.135 176.698C286.741 175.744 286.539 174.722 286.54 173.691V133.981C286.54 131.899 287.367 129.902 288.839 128.43C290.312 126.958 292.308 126.131 294.39 126.131L399.31 126.131C401.392 126.131 403.389 126.958 404.861 128.43C406.333 129.902 407.16 131.899 407.16 133.981V181.551H407.15Z" fill="#EFEEFC"/>
<path d="M407.15 170.09L407.23 194.57L386.32 170.15L407.15 170.09Z" fill="#EFEEFC"/>
<path d="M293.77 145.17H396.41V138.57H293.77V145.17Z" fill="#ABC7F9"/>
<path d="M316.4 160.35H396.42V153.84H316.4V160.35Z" fill="#ABC7F9"/>
<path d="M304.17 176V149.818H307.341V173.188H319.511V176H304.17ZM324.011 176V156.364H327.028V176H324.011ZM325.545 153.091C324.957 153.091 324.45 152.891 324.024 152.49C323.607 152.089 323.398 151.608 323.398 151.045C323.398 150.483 323.607 150.001 324.024 149.601C324.45 149.2 324.957 149 325.545 149C326.134 149 326.636 149.2 327.054 149.601C327.48 150.001 327.693 150.483 327.693 151.045C327.693 151.608 327.48 152.089 327.054 152.49C326.636 152.891 326.134 153.091 325.545 153.091ZM335.571 164.188V176H332.554V156.364H335.469V159.432H335.725C336.185 158.435 336.884 157.634 337.821 157.028C338.759 156.415 339.969 156.108 341.452 156.108C342.782 156.108 343.945 156.381 344.942 156.926C345.939 157.463 346.715 158.281 347.269 159.381C347.823 160.472 348.1 161.852 348.1 163.523V176H345.083V163.727C345.083 162.185 344.682 160.983 343.881 160.122C343.08 159.253 341.98 158.818 340.583 158.818C339.62 158.818 338.759 159.027 338 159.445C337.25 159.862 336.658 160.472 336.223 161.273C335.789 162.074 335.571 163.045 335.571 164.188ZM356.425 168.841L356.374 165.108H356.988L365.579 156.364H369.312L360.158 165.619H359.903L356.425 168.841ZM353.613 176V149.818H356.63V176H353.613ZM366.09 176L358.42 166.284L360.567 164.188L369.925 176H366.09ZM377.132 168.636V168.483C377.15 166.855 377.32 165.56 377.644 164.597C377.968 163.634 378.428 162.854 379.025 162.257C379.621 161.661 380.337 161.111 381.172 160.608C381.675 160.301 382.127 159.939 382.527 159.521C382.928 159.095 383.243 158.605 383.473 158.051C383.712 157.497 383.831 156.884 383.831 156.21C383.831 155.375 383.635 154.651 383.243 154.037C382.851 153.423 382.327 152.95 381.671 152.618C381.015 152.286 380.286 152.119 379.485 152.119C378.786 152.119 378.113 152.264 377.465 152.554C376.817 152.844 376.276 153.3 375.841 153.922C375.407 154.544 375.155 155.358 375.087 156.364H371.865C371.934 154.915 372.309 153.675 372.99 152.643C373.681 151.612 374.588 150.824 375.713 150.278C376.847 149.733 378.104 149.46 379.485 149.46C380.985 149.46 382.289 149.759 383.397 150.355C384.513 150.952 385.374 151.77 385.979 152.81C386.593 153.849 386.9 155.034 386.9 156.364C386.9 157.301 386.755 158.149 386.465 158.908C386.184 159.666 385.775 160.344 385.238 160.94C384.709 161.537 384.07 162.065 383.32 162.526C382.57 162.994 381.969 163.489 381.517 164.009C381.066 164.52 380.738 165.129 380.533 165.837C380.328 166.544 380.218 167.426 380.201 168.483V168.636H377.132ZM378.769 176.205C378.138 176.205 377.597 175.979 377.145 175.527C376.694 175.075 376.468 174.534 376.468 173.903C376.468 173.273 376.694 172.732 377.145 172.28C377.597 171.828 378.138 171.602 378.769 171.602C379.4 171.602 379.941 171.828 380.392 172.28C380.844 172.732 381.07 173.273 381.07 173.903C381.07 174.321 380.963 174.705 380.75 175.054C380.546 175.403 380.269 175.685 379.919 175.898C379.578 176.102 379.195 176.205 378.769 176.205Z" fill="black"/>
</svg>
