<svg width="221" height="188" viewBox="0 0 221 188" fill="none" xmlns="http://www.w3.org/2000/svg">
<circle cx="111" cy="94" r="90" fill="#FFB35F"/>
<g clip-path="url(#clip0_410_3126)">
<path d="M122.097 58.5012C132.813 60.2541 143.47 64.243 153.151 70.1247C162.832 76.0064 171.248 83.6049 177.675 92.2669C184.101 100.929 188.346 110.395 190.045 119.851C191.743 129.308 190.845 138.471 187.426 146.554C184.007 154.637 178.17 161.397 170.418 166.252C162.665 171.108 153.229 173.915 142.921 174.431C132.612 174.947 121.74 173.156 111.238 169.214C100.737 165.271 90.9209 159.294 82.6344 151.798L124.666 116.004L122.097 58.5012Z" fill="black" fill-opacity="0.1"/>
<path fill-rule="evenodd" clip-rule="evenodd" d="M113.837 42.0604C116.517 39.5183 118.331 36.4029 118.028 32.912C117.155 22.8537 99.8294 25.0664 96.4592 30.143C93.0891 35.2195 93.4895 48.0965 97.8451 49.0038C99.5822 49.3657 103.282 48.4793 107.049 46.6448L104.685 60.16H118.643L113.837 42.0604Z" fill="#744F3C"/>
<path fill-rule="evenodd" clip-rule="evenodd" d="M90.2758 23.1054C90.5648 22.2843 91.3423 21.5813 92.39 21.3728C92.6441 21.3222 92.9064 21.3018 93.1679 21.3103C93.2617 21.3133 93.288 21.3352 93.3318 21.2822C93.3643 21.2429 93.365 21.1469 93.3784 21.1007C93.42 20.9571 93.4721 20.8153 93.5364 20.6772C93.7556 20.2061 94.124 19.7892 94.5681 19.4379C95.3988 18.7809 96.5212 18.3274 97.6873 18.2453C98.3256 18.2005 98.9592 18.2843 99.5626 18.452C99.8749 18.5389 100.178 18.6471 100.473 18.7666C100.562 18.8026 100.85 18.9789 100.939 18.9675C101.037 18.9549 101.235 18.7572 101.315 18.7075C102.305 18.094 103.527 17.8528 104.759 17.8602C106.15 17.8685 107.49 17.9246 108.65 18.61C108.896 18.7551 109.13 18.914 109.352 19.0812C109.47 19.1693 109.583 19.2606 109.692 19.3558C109.757 19.4132 109.821 19.4719 109.882 19.5322C109.986 19.6345 109.969 19.6681 110.115 19.5967C110.673 19.3226 111.32 19.1944 111.972 19.2591C112.359 19.2976 112.735 19.3914 113.093 19.515C113.215 19.5571 113.496 19.7249 113.626 19.7266C113.755 19.7282 114.033 19.5726 114.165 19.5331C114.881 19.3194 115.653 19.2668 116.406 19.3655C117.182 19.4673 117.945 19.7177 118.603 20.0636C118.919 20.23 119.195 20.4143 119.417 20.6618C119.512 20.7686 119.599 20.8816 119.707 20.9806C119.771 21.0386 119.897 21.0981 119.931 21.1715C119.91 21.1276 120.78 20.8567 120.862 20.8394C121.299 20.7471 121.744 20.7658 122.172 20.8797C122.977 21.0937 123.669 21.5738 124.238 22.0659C124.53 22.3187 124.786 22.5981 125.003 22.8958C125.107 23.0384 125.202 23.1851 125.289 23.3349C125.331 23.4075 125.359 23.4982 125.415 23.5636C125.486 23.6478 125.535 23.6494 125.664 23.6862C126.323 23.8727 126.923 24.1883 127.381 24.6149C127.843 25.0464 128.143 25.5778 128.269 26.1374C128.277 26.1704 128.281 26.307 128.305 26.3249C128.338 26.3494 128.47 26.3386 128.52 26.3433C128.694 26.3598 128.866 26.3842 129.036 26.4168C129.349 26.4767 129.654 26.5649 129.943 26.6803C131.068 27.1301 131.872 27.9732 132.266 28.922C132.679 29.9176 132.672 31.0584 132.178 32.0354C132.098 32.1933 132.003 32.3464 131.892 32.4914C131.823 32.5803 131.801 32.5805 131.846 32.6739C131.895 32.7777 131.986 32.8786 132.045 32.9801C132.236 33.3112 132.371 33.6623 132.455 34.021C132.594 34.6093 132.663 35.2276 132.526 35.8204C132.462 36.0957 132.351 36.3647 132.182 36.6099C132.096 36.7349 131.995 36.8535 131.881 36.9631C131.822 37.0201 131.759 37.0745 131.693 37.1266C131.655 37.1563 131.606 37.1824 131.574 37.2156C131.496 37.2967 131.48 37.23 131.52 37.349C131.576 37.5154 131.704 37.6796 131.782 37.8415C131.862 38.0084 131.935 38.1775 132.002 38.3484C132.137 38.6942 132.251 39.0464 132.322 39.4046C132.459 40.0923 132.435 40.8251 132.032 41.4563C131.86 41.7263 131.613 41.9631 131.314 42.1473C131.167 42.2375 131.008 42.3151 130.842 42.3789C130.756 42.4118 130.647 42.4259 130.608 42.4927C130.566 42.5647 130.628 42.7075 130.642 42.7879C130.766 43.4874 130.828 44.2218 130.571 44.9073C130.334 45.5386 129.812 46.096 129.135 46.4651C127.821 47.181 126.049 47.1407 124.668 46.5675C124.309 46.4181 123.972 46.2326 123.671 46.0138C122.907 46.8459 121.332 46.8196 120.215 46.5825C118.822 46.2871 117.704 45.5044 117.06 44.4761C116.18 45.3423 114.332 45.0613 113.721 44.1216C113.572 43.8916 113.483 43.6381 113.44 43.3816C113.417 43.2468 113.431 43.1107 113.414 42.9769C113.392 42.8064 113.251 42.6407 113.17 42.4758C113.012 42.1548 112.915 41.8232 112.91 41.4769C112.908 41.2961 112.936 41.12 112.958 40.9406C112.977 40.7792 112.921 40.6288 112.89 40.4695C113.247 40.517 113.682 40.4391 114.019 40.3554C114.349 40.2733 114.658 40.057 114.892 39.8594C115.433 39.4006 115.763 38.7992 115.99 38.2006C116.486 36.8868 116.283 35.3106 114.647 34.5896C113.886 34.2537 111.604 34.2548 110.696 34.4208C109.742 34.5954 108.661 36.2964 108.608 36.4563C108.575 36.5552 108.591 36.6777 108.479 36.7436C108.232 36.8886 107.824 36.637 107.642 36.5129C107.327 36.2986 107.103 36.0134 106.908 35.7244C106.485 35.0947 106.143 34.4195 105.902 33.7302C105.716 33.1987 105.597 32.6507 105.354 32.1328C105.112 31.6175 104.731 31.1568 104.138 30.8649C103.494 30.5473 102.754 30.3801 102.046 30.1805C101.345 29.9827 100.655 29.741 100.111 29.3213C99.9917 29.229 99.8756 29.1309 99.7793 29.0223C99.7033 28.9365 99.6282 28.7723 99.5124 28.7179C99.3324 28.6333 99.0697 28.8533 98.914 28.9332C98.1461 29.3274 97.5054 29.8771 96.9887 30.4776C96.4748 31.0749 96.0532 31.6496 95.7105 32.3165C95.4564 32.8111 95.2978 33.4446 94.8508 33.8499C94.6512 34.0309 93.1679 34.1404 92.6874 33.9824C92.207 33.8244 91.6685 33.4141 91.5072 33.1569C91.3421 32.8937 91.3027 32.6046 91.3732 32.3165C91.4147 32.147 91.4994 31.9886 91.5458 31.8221C91.5848 31.6823 91.6202 31.5501 91.7045 31.422C91.8641 31.1792 92.1369 31.0046 92.4658 30.9317C92.1235 30.6766 91.8399 30.3715 91.6436 30.0305C91.4397 29.6761 91.2668 29.2452 91.2178 28.8563C91.1779 28.5404 91.2395 28.2131 91.4534 27.9417C91.6779 27.6569 92.0756 27.4711 92.4196 27.2935C91.8941 26.9612 91.4443 26.5571 91.0745 26.1096C90.3554 25.2395 89.9105 24.1427 90.2758 23.1054Z" fill="#191847"/>
<path fill-rule="evenodd" clip-rule="evenodd" d="M39.833 175.62C47.2847 162.292 52.6736 150.686 54.8367 144.563C58.5405 134.078 61.3581 124.852 62.0702 121.407C63.7684 113.191 49.0068 112.713 47.0557 116.796C44.1025 122.976 38.9469 143.281 32.7521 173.95L39.833 175.62ZM126.268 133.792C119.431 131.608 95.4886 124.773 83.9412 122.84C80.6229 122.284 77.4067 121.768 74.383 121.301C65.3953 119.915 60.7389 133.018 69.3951 134.025C90.9525 136.532 121.514 139.122 124.129 139.412C127.795 139.819 130.565 135.164 126.268 133.792Z" fill="#744F3C"/>
<path fill-rule="evenodd" clip-rule="evenodd" d="M68.8667 117.696L105.848 102.482V99.17H101.45C65.6723 106.538 47.39 111.259 46.603 113.335C46.5945 113.357 46.5868 113.379 46.5797 113.402C46.5617 113.421 46.544 113.44 46.5266 113.459C39.4363 121.34 35.1899 159.813 33.7962 162.693L47.3828 164.331C52.5801 148.757 69.2082 137.906 68.7665 119.253C68.8858 118.705 68.9159 118.187 68.8667 117.696Z" fill="#1F28CF"/>
<path fill-rule="evenodd" clip-rule="evenodd" d="M102.775 126.731C106.159 126.184 109.275 125.695 111.941 125.317C129.164 122.876 134.186 115.426 131.217 99.17L99.4845 99.17C94.301 100.373 67.3626 109.503 53.3857 114.359C44.1351 117.572 47.0512 129.158 52.2898 132.173C52.3183 132.358 52.4126 132.484 52.5804 132.54C80.7605 141.979 103.054 137.026 110.501 138.609L113.945 129.827L102.775 126.731Z" fill="#2B44FF"/>
<path fill-rule="evenodd" clip-rule="evenodd" d="M124.473 132.277C126.219 132.346 127.451 132.517 128.168 132.79C129.041 133.122 130.234 133.737 131.746 134.632C131.184 135.532 126.131 143.62 116.587 158.896C113.848 158.634 112.81 157.788 113.472 156.358C114.133 154.929 114.67 153.736 115.08 152.78L116.471 139.349C116.497 139.091 116.766 138.878 117.071 138.874C117.076 138.874 117.081 138.874 117.086 138.874L119.517 138.902C120.963 137.896 121.931 137 122.423 136.214C122.822 135.575 123.083 134.582 123.205 133.235C123.253 132.719 123.785 132.289 124.395 132.276C124.421 132.276 124.447 132.276 124.473 132.277Z" fill="#E4E4E4"/>
<path fill-rule="evenodd" clip-rule="evenodd" d="M43.2242 173.149C43.8749 174.553 44.2002 175.603 44.2002 176.3C44.2002 177.147 44.0255 178.384 43.6761 180.01C42.4594 180.01 31.5254 180.01 10.8739 180.01C10.0215 177.733 10.5136 176.503 12.3501 176.322C14.1867 176.14 15.7123 175.976 16.927 175.83L32.1731 170.337C32.4665 170.231 32.8104 170.338 32.9411 170.575C32.9434 170.579 32.9455 170.583 32.9476 170.587L33.9276 172.508C35.6278 173.149 37.0093 173.47 38.0723 173.47C38.9359 173.47 40.1286 173.188 41.6503 172.624C42.2342 172.408 42.9246 172.615 43.1923 173.087C43.2039 173.107 43.2145 173.128 43.2242 173.149Z" fill="#E4E4E4"/>
<path fill-rule="evenodd" clip-rule="evenodd" d="M72.0904 91.7076L55.6155 104.696C50.8219 106.348 46.8942 108.173 43.8325 110.17C43.144 110.841 42.3944 112.127 45.6339 111.552C48.8735 110.976 52.313 110.489 52.9219 111.34C53.5307 112.191 51.7367 113.496 52.8619 114.61C53.6121 115.353 56.135 112.99 60.4306 107.522L77.5623 99.3592L72.0904 91.7076ZM145.216 93.5393L133.063 93.578C140.567 113.155 144.618 123.543 145.216 124.741C146.562 127.436 143.714 131.541 142.496 133.747C146.463 135.181 146.04 129.869 151.044 131.75C155.61 133.467 159.085 136.578 164.361 133.947C165.01 133.624 165.721 132.406 164.003 131.454C159.724 129.083 153.557 124.933 152.724 123.567C151.588 121.704 149.085 111.695 145.216 93.5393Z" fill="#744F3C"/>
<path fill-rule="evenodd" clip-rule="evenodd" d="M110.678 52.3261L105.649 51.629C96.9908 69.1084 81.8743 84.9906 60.2997 99.2758L76.6026 115.282C98.1747 94.9422 111.472 73.9568 110.678 52.3261Z" fill="#EC504B"/>
<path fill-rule="evenodd" clip-rule="evenodd" d="M132.601 103.4H87.819C98.1939 83.0138 103.381 65.696 103.381 51.4466L116.89 49.82C127.506 63.6185 130.504 80.6071 132.601 103.4Z" fill="#DDE3E9"/>
<path fill-rule="evenodd" clip-rule="evenodd" d="M117.175 49.8277C117.174 49.8252 117.172 49.8226 117.17 49.82L116.288 49.82C115.233 49.8494 113.626 49.9023 111.467 49.9787L108.203 57.5171C107.858 66.7082 105.841 85.2308 102.154 113.085H131.509C131.432 115.009 131.305 116.95 131.129 118.91H152.956C149.691 89.1421 137.767 66.1121 117.186 49.82L117.175 49.8277Z" fill="#EC504B"/>
<path fill-rule="evenodd" clip-rule="evenodd" d="M129.57 88.4696C128.735 100.462 126.643 108.728 123.295 113.27H131.502C131.861 104.642 131.217 96.3754 129.57 88.4696Z" fill="black" fill-opacity="0.1"/>
<path fill-rule="evenodd" clip-rule="evenodd" d="M124.976 98.7L110.501 93.2618V98.7H124.976Z" fill="white" fill-opacity="0.2"/>
</g>
<defs>
<clipPath id="clip0_410_3126">
<rect width="221" height="188" fill="white"/>
</clipPath>
</defs>
</svg>
