<svg width="717" height="525" viewBox="0 0 717 525" fill="none" xmlns="http://www.w3.org/2000/svg">
<ellipse cx="358.5" cy="451.5" rx="358.5" ry="73.5" fill="#897171"/>
<path fill-rule="evenodd" clip-rule="evenodd" d="M284.047 92.9497C280.865 86.2574 279.512 78.7383 282.042 71.3969C289.331 50.2442 318.07 63.0277 320.992 75.4724C323.914 87.9172 315.825 115.331 307.759 115.254C304.543 115.223 298.643 111.606 293.173 105.926L289.506 135.991L265.329 129.513L284.047 92.9497Z" fill="#744F3C"/>
<path fill-rule="evenodd" clip-rule="evenodd" d="M292.82 93.676C288.28 98.6273 282.973 101.85 278.83 100.74C270.962 98.6318 268.186 86.6132 271.217 75.3028C271.323 74.9054 271.437 74.5128 271.557 74.1252C261.704 77.6065 252.273 87.1459 241.26 84.195C226.277 80.1803 228.424 48.3651 249.357 53.9742C263.594 57.7888 270.04 61.7408 275.253 66.4273C277.342 63.3906 279.913 61.0557 282.661 59.6802C283.356 59.2222 284.328 58.8665 285.527 58.6163C286.267 58.4361 287.013 58.3274 287.757 58.2949C291.755 57.9326 297.28 58.4018 303.223 59.774C304.333 60.0303 305.416 60.3084 306.466 60.6048C307.97 55.0606 313.677 51.7743 319.23 53.2622C324.794 54.753 328.095 60.4715 326.605 66.035C325.163 71.4154 319.767 74.6804 314.382 73.5411C311.093 73.6645 307.006 73.3069 302.6 72.4374C302.597 74.1302 302.344 75.9865 301.801 78.0151C301.321 79.8064 300.614 81.6531 299.733 83.4844C299.094 82.1172 298.034 81.0528 296.76 80.7115C293.196 79.7566 289.93 82.0235 289.096 85.1361C288.038 89.0865 289.552 92.5553 292.82 93.676Z" fill="#191847"/>
<path fill-rule="evenodd" clip-rule="evenodd" d="M234.49 221.707L272.692 353.348L290.661 452.186H308.696L290.693 221.707H234.49Z" fill="#744F3C"/>
<path fill-rule="evenodd" clip-rule="evenodd" d="M217.322 221.707C219.988 290.094 218.937 327.394 218.34 333.607C217.743 339.82 214.356 381.433 191.277 454.272H210.035C240.6 384.395 251.27 342.783 254.775 333.607C258.281 324.431 268.634 287.131 283.75 221.707H217.322Z" fill="#744F3C"/>
<path fill-rule="evenodd" clip-rule="evenodd" d="M233.67 221.707C243.607 267.005 260.794 339.312 285.231 438.629H311.609C313.557 336.69 305.269 269.597 290.916 221.707H233.67Z" fill="#1F28CF"/>
<path fill-rule="evenodd" clip-rule="evenodd" d="M217.188 221.707C219.799 290.094 213.034 357.468 192.076 439.694H220.22C250.841 370.859 272.789 303.817 287.788 221.707H217.188Z" fill="#2B44FF"/>
<path fill-rule="evenodd" clip-rule="evenodd" d="M188.603 467.83L189.638 451.144C195.698 452.916 203.288 452.221 212.408 449.058C222.214 456.004 234.559 460.747 249.443 463.287C250.578 463.481 251.342 464.559 251.148 465.694C251.135 465.768 251.119 465.841 251.099 465.912L249.668 470.959H212.408H190.673L188.603 467.83Z" fill="white"/>
<path fill-rule="evenodd" clip-rule="evenodd" d="M286.635 467.83L287.67 451.144C293.73 452.916 301.32 452.221 310.44 449.058C320.246 456.004 332.591 460.747 347.475 463.287C348.61 463.481 349.374 464.559 349.18 465.694C349.168 465.768 349.151 465.841 349.131 465.912L347.7 470.959H310.44H288.705L286.635 467.83Z" fill="white"/>
<ellipse cx="420.5" cy="142.5" rx="78.5" ry="73.5" fill="#372115"/>
<path fill-rule="evenodd" clip-rule="evenodd" d="M362.039 189.397L379.215 183.556C382.886 175.583 386.254 171.839 389.319 172.326C391.859 171.647 385.908 181.491 390.52 181.359C395.132 181.228 407.417 175.065 408.999 177.035C411.34 179.95 407.558 186.965 403.995 190.159C397.338 196.127 392.419 197.702 380.747 198.842C374.644 199.439 367.782 201.581 360.16 205.268L362.039 189.397Z" fill="#744F3C"/>
<path fill-rule="evenodd" clip-rule="evenodd" d="M292.517 155.668C305.027 157.738 322.142 158.036 341.897 149.892L346.131 166.682C331.732 176.683 312.738 183.637 297.746 180.557C285.931 178.13 282.395 162.698 292.517 155.668Z" fill="#EC504B"/>
<path fill-rule="evenodd" clip-rule="evenodd" d="M304.93 183.586C317.603 189.229 340.52 189.25 373.68 183.649C378.597 201.025 380.162 213.071 378.376 219.787C349.143 229.049 325.101 231.238 306.128 228.317C304.751 239.638 301.504 250.069 295.199 259.011C282.237 277.395 230.307 249.096 211.101 249.477C206.134 209.679 231.313 198.301 235.59 174.15C240.274 147.702 268.692 110.733 271.817 111.284L300.314 116.309C298.325 136.787 302.313 160.446 304.93 183.586Z" fill="#EC504B"/>
<rect x="441" y="285" width="109" height="81" fill="#F7B84E"/>
<rect x="381" y="366" width="139" height="105" fill="#EC504B"/>
<ellipse cx="661.246" cy="443.048" rx="19" ry="36.5" transform="rotate(-74.5293 661.246 443.048)" fill="#020202"/>
</svg>
