<svg width="581" height="490" viewBox="0 0 581 490" fill="none" xmlns="http://www.w3.org/2000/svg">
<g clip-path="url(#clip0_432_4804)">
<ellipse cx="268.857" cy="187.24" rx="162.084" ry="153.546" fill="#D9D9D9" fill-opacity="0.1"/>
<path fill-rule="evenodd" clip-rule="evenodd" d="M116.645 191.082C112.212 185.875 109.213 179.494 109.714 172.343C111.158 151.742 139.814 156.274 145.388 166.672C150.962 177.07 150.3 203.445 143.096 205.303C140.223 206.045 134.103 204.229 127.874 200.472L131.783 228.154H108.697L116.645 191.082Z" fill="#673B22"/>
<path fill-rule="evenodd" clip-rule="evenodd" d="M155.616 152.258C155.138 150.576 153.852 149.136 152.119 148.709C151.699 148.605 151.265 148.563 150.832 148.581C150.677 148.587 150.634 148.632 150.561 148.523C150.507 148.443 150.506 148.246 150.484 148.151C150.415 147.857 150.329 147.567 150.223 147.284C149.86 146.319 149.251 145.465 148.516 144.746C147.142 143.4 145.286 142.471 143.357 142.303C142.302 142.211 141.254 142.383 140.256 142.726C139.739 142.904 139.238 143.126 138.75 143.371C138.603 143.444 138.126 143.805 137.979 143.782C137.816 143.756 137.489 143.351 137.356 143.25C135.72 141.993 133.699 141.499 131.66 141.514C129.359 141.531 127.144 141.646 125.225 143.05C124.819 143.347 124.432 143.672 124.063 144.015C123.869 144.195 123.681 144.383 123.502 144.577C123.394 144.695 123.289 144.815 123.187 144.939C123.016 145.148 123.043 145.217 122.802 145.071C121.879 144.509 120.809 144.247 119.731 144.379C119.091 144.458 118.468 144.65 117.877 144.904C117.675 144.99 117.209 145.333 116.995 145.337C116.782 145.34 116.322 145.021 116.103 144.94C114.919 144.503 113.642 144.395 112.397 144.597C111.113 144.806 109.852 145.319 108.764 146.027C108.24 146.368 107.784 146.746 107.417 147.252C107.259 147.471 107.116 147.703 106.936 147.905C106.831 148.024 106.623 148.146 106.567 148.296C106.6 148.206 105.162 147.652 105.027 147.616C104.304 147.427 103.568 147.466 102.86 147.699C101.528 148.137 100.384 149.12 99.4427 150.128C98.9594 150.646 98.5365 151.218 98.1776 151.828C98.0055 152.12 97.8482 152.421 97.7043 152.728C97.6345 152.876 97.5883 153.062 97.4964 153.196C97.3779 153.369 97.2984 153.372 97.0838 153.447C95.9943 153.829 95.0012 154.476 94.2449 155.349C93.4799 156.233 92.9835 157.322 92.7753 158.468C92.7631 158.535 92.7558 158.815 92.7163 158.852C92.6622 158.902 92.4431 158.88 92.3602 158.89C92.0732 158.923 91.7882 158.973 91.507 159.04C90.9887 159.163 90.4842 159.343 90.007 159.58C88.1466 160.501 86.8162 162.228 86.1651 164.171C85.4819 166.211 85.494 168.547 86.3105 170.548C86.4424 170.872 86.5994 171.185 86.7837 171.482C86.8969 171.664 86.9334 171.665 86.8599 171.856C86.778 172.069 86.6284 172.275 86.5311 172.483C86.2137 173.161 85.9918 173.881 85.8517 174.615C85.6217 175.82 85.5078 177.087 85.7346 178.301C85.8399 178.865 86.0235 179.416 86.3034 179.918C86.4462 180.174 86.6132 180.417 86.8018 180.641C86.8997 180.758 87.0037 180.869 87.1124 180.976C87.1746 181.037 87.2562 181.09 87.3091 181.159C87.4382 181.325 87.4653 181.188 87.3987 181.432C87.3057 181.773 87.0946 182.109 86.9654 182.441C86.8322 182.782 86.7119 183.129 86.6018 183.479C86.3788 184.187 86.1903 184.908 86.0724 185.642C85.846 187.051 85.8858 188.552 86.5516 189.844C86.8362 190.397 87.2446 190.883 87.7399 191.26C87.9823 191.444 88.2449 191.604 88.5204 191.734C88.6619 191.802 88.8426 191.83 88.9072 191.967C88.9767 192.115 88.8735 192.407 88.85 192.572C88.6453 194.005 88.5426 195.509 88.9682 196.913C89.3602 198.206 90.2231 199.348 91.3436 200.104C93.5171 201.57 96.447 201.487 98.7309 200.314C99.3262 200.007 99.8832 199.628 100.38 199.179C101.645 200.884 104.249 200.83 106.098 200.344C108.401 199.739 110.25 198.136 111.315 196.03C112.771 197.804 115.827 197.228 116.837 195.304C117.084 194.833 117.231 194.313 117.303 193.788C117.341 193.512 117.317 193.233 117.345 192.959C117.382 192.61 117.615 192.27 117.749 191.933C118.01 191.275 118.172 190.596 118.179 189.887C118.182 189.516 118.135 189.156 118.1 188.788C118.069 188.458 118.16 188.15 118.212 187.823C117.621 187.921 116.902 187.761 116.345 187.59C115.799 187.421 115.287 186.978 114.902 186.574C114.006 185.634 113.46 184.402 113.086 183.176C112.265 180.485 112.601 177.257 115.306 175.78C116.565 175.092 120.34 175.094 121.84 175.434C123.418 175.792 125.207 179.276 125.295 179.603C125.349 179.806 125.322 180.057 125.508 180.192C125.917 180.489 126.591 179.974 126.893 179.719C127.413 179.28 127.785 178.696 128.106 178.104C128.807 176.815 129.371 175.431 129.77 174.02C130.078 172.931 130.274 171.809 130.676 170.748C131.076 169.692 131.707 168.749 132.687 168.151C133.754 167.5 134.976 167.158 136.147 166.749C137.308 166.344 138.448 165.849 139.348 164.989C139.546 164.8 139.738 164.599 139.897 164.377C140.023 164.201 140.147 163.865 140.339 163.753C140.636 163.58 141.071 164.031 141.328 164.194C142.598 165.002 143.658 166.128 144.513 167.358C145.363 168.581 146.06 169.758 146.627 171.124C147.047 172.137 147.309 173.435 148.049 174.265C148.379 174.636 150.832 174.86 151.627 174.536C152.422 174.213 153.312 173.372 153.579 172.845C153.852 172.306 153.917 171.714 153.801 171.124C153.732 170.777 153.592 170.452 153.515 170.111C153.451 169.825 153.392 169.554 153.253 169.292C152.989 168.794 152.538 168.437 151.994 168.288C152.56 167.765 153.029 167.14 153.353 166.442C153.691 165.716 153.977 164.833 154.058 164.037C154.124 163.39 154.022 162.719 153.668 162.163C153.297 161.58 152.639 161.2 152.07 160.836C152.939 160.155 153.683 159.327 154.295 158.411C155.484 156.629 156.22 154.382 155.616 152.258Z" fill="black"/>
<path fill-rule="evenodd" clip-rule="evenodd" d="M44.2481 348.488H154.869C163.369 348.488 170.26 355.384 170.26 363.891V452.457C170.26 460.964 163.369 467.86 154.869 467.86H44.2481C35.7481 467.86 28.8574 460.964 28.8574 452.457V363.891C28.8574 355.384 35.7481 348.488 44.2481 348.488ZM59.6389 375.443C57.5139 375.443 55.7912 377.167 55.7912 379.294V437.054C55.7912 439.181 57.5139 440.905 59.6389 440.905H139.478C141.603 440.905 143.326 439.181 143.326 437.054V379.294C143.326 377.167 141.603 375.443 139.478 375.443H59.6389Z" fill="#C5CFD6"/>
<path fill-rule="evenodd" clip-rule="evenodd" d="M239.047 464.644C226.722 437.344 217.809 413.573 214.231 401.031C208.105 379.556 203.445 360.659 202.267 353.603C199.459 336.774 223.874 335.795 227.101 344.158C231.986 356.816 240.513 398.405 250.759 461.224L239.047 464.644ZM96.0857 378.97C107.394 374.496 146.994 360.497 166.093 356.537C171.582 355.399 176.901 354.342 181.902 353.386C196.768 350.546 204.469 377.385 190.152 379.447C154.497 384.583 103.949 389.886 99.6231 390.481C93.5603 391.315 88.9789 381.781 96.0857 378.97Z" fill="#673B22"/>
<path fill-rule="evenodd" clip-rule="evenodd" d="M191.025 346.002L129.859 314.84V308.057H137.134C196.309 323.147 226.547 332.818 227.849 337.069C227.863 337.115 227.876 337.161 227.887 337.207C227.917 337.246 227.947 337.285 227.975 337.325C239.703 353.466 246.726 432.267 249.031 438.168L226.559 441.523C217.963 409.622 190.46 387.398 191.191 349.191C190.994 348.07 190.944 347.007 191.025 346.002Z" fill="#1F28CF"/>
<path fill-rule="evenodd" clip-rule="evenodd" d="M134.941 364.508C129.344 363.387 124.19 362.386 119.78 361.612C91.2946 356.612 82.9879 341.352 87.8993 308.057L140.384 308.057C148.957 310.521 193.513 329.221 216.63 339.167C231.931 345.749 227.107 369.479 218.443 375.655C218.396 376.034 218.24 376.291 217.962 376.406C171.353 395.739 134.481 385.595 122.163 388.837L116.466 370.85L134.941 364.508Z" fill="#2B44FF"/>
<path fill-rule="evenodd" clip-rule="evenodd" d="M99.9542 376.114C96.8998 376.407 94.7315 376.866 93.4493 377.492C91.8898 378.254 89.7408 379.625 87.0022 381.605C87.8841 383.415 95.8103 399.681 110.781 430.403C115.589 429.625 117.495 427.789 116.497 424.894C115.5 421.998 114.696 419.582 114.085 417.643L113.139 390.028C113.121 389.497 112.676 389.081 112.145 389.099C112.136 389.1 112.127 389.1 112.118 389.101L107.872 389.369C105.46 387.415 103.869 385.648 103.099 384.067C102.472 382.782 102.127 380.754 102.061 377.984C102.035 376.921 101.154 376.08 100.091 376.106C100.046 376.107 99.9998 376.11 99.9542 376.114Z" fill="#E4E4E4"/>
<path fill-rule="evenodd" clip-rule="evenodd" d="M233.436 459.584C232.36 462.459 231.822 464.61 231.822 466.037C231.822 467.773 232.111 470.306 232.689 473.637C234.701 473.637 252.786 473.637 286.943 473.637C288.353 468.972 287.539 466.454 284.502 466.082C281.464 465.71 278.941 465.374 276.932 465.074L251.715 453.824C251.23 453.607 250.661 453.826 250.445 454.311C250.441 454.319 250.437 454.328 250.434 454.336L248.813 458.271C246.001 459.584 243.716 460.241 241.958 460.241C240.529 460.241 238.557 459.663 236.04 458.509C235.074 458.066 233.932 458.49 233.489 459.457C233.47 459.498 233.453 459.541 233.436 459.584Z" fill="#E4E4E4"/>
<path fill-rule="evenodd" clip-rule="evenodd" d="M185.692 292.771L212.941 319.375C220.87 322.76 227.366 326.497 232.43 330.587C233.569 331.961 234.809 334.596 229.45 333.417C224.092 332.238 218.403 331.239 217.396 332.983C216.389 334.727 219.357 337.399 217.495 339.682C216.255 341.203 212.082 336.364 204.977 325.163L176.641 308.444L185.692 292.771ZM64.7434 296.523L84.845 296.602C72.4332 336.701 65.7326 357.977 64.7434 360.431C62.5175 365.952 67.2277 374.359 69.242 378.877C62.6816 381.815 63.3806 370.935 55.1049 374.788C47.5513 378.305 41.8052 384.678 33.078 379.289C32.0051 378.626 30.8293 376.131 33.6701 374.182C40.7477 369.325 50.9469 360.825 52.325 358.027C54.2042 354.211 58.3437 333.71 64.7434 296.523Z" fill="#673B22"/>
<path fill-rule="evenodd" clip-rule="evenodd" d="M121.87 212.108L130.187 210.681C144.508 246.483 169.51 279.013 205.194 308.273L178.23 341.058C142.55 299.396 120.557 256.413 121.87 212.108Z" fill="#EC504B"/>
<path fill-rule="evenodd" clip-rule="evenodd" d="M85.6094 316.719H159.677C142.517 274.963 133.938 239.492 133.938 210.306L111.595 206.975C94.0357 235.237 89.0769 270.034 85.6094 316.719Z" fill="#DDE3E9"/>
<path fill-rule="evenodd" clip-rule="evenodd" d="M111.123 206.99C111.126 206.985 111.129 206.98 111.132 206.975L112.59 206.975C114.335 207.035 116.994 207.143 120.565 207.3L125.963 222.74C126.534 241.566 129.869 279.504 135.968 336.556H87.4152C87.5425 340.496 87.7524 344.473 88.0448 348.487H51.9434C57.3435 287.516 77.0641 240.345 111.105 206.975L111.123 206.99Z" fill="#EC504B"/>
<path fill-rule="evenodd" clip-rule="evenodd" d="M90.6219 286.137C92.0037 310.699 95.4633 327.631 101.001 336.934H87.4272C86.833 319.262 87.8979 302.33 90.6219 286.137Z" fill="black" fill-opacity="0.1"/>
<path fill-rule="evenodd" clip-rule="evenodd" d="M98.2207 307.092L122.162 295.953V307.092H98.2207Z" fill="white" fill-opacity="0.2"/>
<g clip-path="url(#clip1_432_4804)">
<path d="M255.109 143.446C256.205 150.184 259.139 170.189 260.169 177.216C260.213 177.531 260.191 177.852 260.105 178.158C260.018 178.464 259.869 178.748 259.666 178.993C259.463 179.238 259.211 179.437 258.927 179.579C258.642 179.721 258.331 179.801 258.014 179.816L244.614 180.489C244.071 180.515 243.536 180.345 243.106 180.012C242.676 179.679 242.379 179.203 242.267 178.67L235.717 146.902C235.655 146.603 235.654 146.294 235.714 145.994C235.774 145.695 235.893 145.41 236.064 145.157C236.235 144.904 236.455 144.688 236.711 144.521C236.967 144.355 237.253 144.241 237.554 144.187L252.464 141.549C252.762 141.496 253.068 141.503 253.364 141.569C253.66 141.636 253.94 141.762 254.186 141.939C254.433 142.115 254.642 142.34 254.8 142.599C254.958 142.858 255.063 143.146 255.109 143.446Z" fill="#110C0A"/>
<path fill-rule="evenodd" clip-rule="evenodd" d="M341.851 64.8838C337.983 77.8143 332.602 107.536 337.31 112.291L367.526 112.922C367.53 112.868 367.534 112.815 367.538 112.762C378.763 111.756 387.67 102.438 387.908 90.9025L388.349 69.6018C388.605 57.2238 378.783 46.98 366.411 46.7216L364.327 46.6781C353.231 46.4463 343.852 54.3259 341.851 64.8838Z" fill="black"/>
<path fill-rule="evenodd" clip-rule="evenodd" d="M376.256 86.7123C381.173 81.2245 384.564 74.4441 384.18 66.7588C383.072 44.6155 351.928 48.83 345.659 59.8633C339.39 70.8965 339.523 99.2186 347.286 101.376C350.382 102.237 357.052 100.427 363.884 96.5357L359.035 126.157L384.044 126.68L376.256 86.7123Z" fill="#705042"/>
<path fill-rule="evenodd" clip-rule="evenodd" d="M369.572 82.8339C368.166 95.0821 368.338 109.107 371.703 112.505L401.918 113.136C404.202 84.1656 387.699 95.0581 388.264 67.7485C387.27 66.7445 386.332 65.7517 385.4 64.893L385.451 64.0905C380.438 53.3595 373.91 47.9099 365.866 47.7419C353.801 47.4899 349.877 52.9776 346.537 57.6365C348.791 65.9373 358.176 67.3572 366.43 72.6744C367.432 71.9009 368.699 71.4513 370.068 71.4799C373.233 71.546 375.746 74.1438 375.681 77.2822C375.616 80.4206 372.997 82.9112 369.833 82.8451C369.745 82.8432 369.658 82.8395 369.572 82.8339Z" fill="black"/>
<path fill-rule="evenodd" clip-rule="evenodd" d="M454.031 301.083C431.419 313.822 411.308 322.358 393.696 326.691C376.085 331.023 358.446 329.835 340.781 323.128C362.829 310.337 381.538 302.051 396.909 298.27C412.28 294.489 431.321 295.427 454.031 301.083Z" fill="black"/>
<path fill-rule="evenodd" clip-rule="evenodd" d="M375.079 341.616C375.227 341.208 375.331 340.778 375.386 340.326C376.53 330.974 405.835 225.907 406.869 207.762L348.357 222.155C347.571 235.951 349.625 320.81 351.076 337.484C349.43 364.754 353.384 450.788 352.712 456.981C352.005 463.496 365.775 466.714 367.231 458.56C369.548 445.587 373.965 410.18 374.618 389.063C375.229 369.267 375.339 351.565 375.079 341.616Z" fill="#744F3C"/>
<path fill-rule="evenodd" clip-rule="evenodd" d="M425.718 341.106C450.948 341.248 540.516 330.692 546.897 330.923C553.461 331.16 555.744 317.229 547.49 316.364C534.356 314.987 498.642 313.126 477.476 313.987C460.452 314.68 444.996 315.631 434.676 316.5C428.685 288.475 416.136 220.771 410.073 206.972L358.301 219.708C364.115 232.939 409.332 328.796 415.612 337.96C417.703 341.269 421.691 341.977 425.718 341.106Z" fill="#705042"/>
<path fill-rule="evenodd" clip-rule="evenodd" d="M546.167 313.037C549.195 311.666 551.48 310.929 553.022 310.827C554.897 310.702 557.654 310.832 561.294 311.218C561.439 313.394 562.741 332.955 565.202 369.9C560.265 371.76 557.486 371.061 556.865 367.802C556.244 364.544 555.7 361.838 555.231 359.687L541.262 333.221C540.993 332.712 541.188 332.081 541.696 331.812C541.705 331.807 541.714 331.803 541.723 331.799L545.857 329.762C547.073 326.626 547.617 324.108 547.491 322.206C547.388 320.661 546.622 318.569 545.193 315.93C544.645 314.917 545.021 313.651 546.033 313.103C546.077 313.079 546.122 313.057 546.167 313.037Z" fill="#E4E4E4"/>
<path fill-rule="evenodd" clip-rule="evenodd" d="M370.672 461.334C371.723 464.488 372.22 466.837 372.164 468.382C372.095 470.26 371.682 472.99 370.925 476.572C368.746 476.492 349.168 475.772 312.191 474.412C310.849 469.308 311.83 466.615 315.133 466.334C318.436 466.052 321.181 465.789 323.368 465.545L351.112 454.373C351.646 454.158 352.253 454.417 352.468 454.951C352.471 454.96 352.475 454.969 352.478 454.978L354.078 459.301C357.07 460.834 359.518 461.636 361.421 461.706C362.967 461.763 365.126 461.216 367.896 460.067C368.959 459.626 370.178 460.13 370.62 461.194C370.639 461.24 370.656 461.287 370.672 461.334Z" fill="#E4E4E4"/>
<path fill-rule="evenodd" clip-rule="evenodd" d="M409.904 207.013C385.492 206.118 363.905 211.428 345.145 222.943C345.975 256.902 331.905 273.922 341.009 324.06C379.598 332.639 414.925 292.989 454.422 300.897C458.831 275.162 430.916 222.665 409.904 207.013Z" fill="#3B6096"/>
<path fill-rule="evenodd" clip-rule="evenodd" d="M339.547 153.577L302.146 136.299C295.672 129.603 289.392 124.486 283.306 120.948C281.476 120.326 278.334 120.086 281.588 125.036C284.841 129.986 288.039 135.338 286.662 137.022C285.285 138.705 281.439 136.738 279.846 139.488C278.783 141.322 285.285 143.674 299.352 146.545L327.168 168.705L339.547 153.577ZM284.13 173.943L267.699 166.328C264.914 158.049 261.972 153.986 258.875 154.139C256.425 153.196 261.273 163.569 256.707 162.945C252.14 162.322 240.602 154.912 238.818 156.691C236.178 159.323 239.177 166.667 242.371 170.206C248.339 176.822 253.055 178.906 264.526 181.283C270.524 182.526 277.109 185.379 284.282 189.842L284.13 173.943Z" fill="#744F3C"/>
<path fill-rule="evenodd" clip-rule="evenodd" d="M356.826 148.02C344.177 148.729 327.143 147.192 308.4 137.022L302.381 153.176C315.604 164.609 333.719 173.52 348.944 172.078C360.942 170.942 366.121 156.057 356.826 148.02Z" fill="#FFAA49"/>
<path fill-rule="evenodd" clip-rule="evenodd" d="M341.477 174.308C328.279 178.534 305.512 176.102 273.177 167.013C266.417 183.674 263.561 195.421 264.61 202.254C292.648 214.544 316.293 219.282 335.456 218.423C335.601 229.768 337.7 240.433 342.997 249.953C353.887 269.523 408.529 247.09 427.566 249.523C436.799 210.69 413.016 196.741 411.376 172.396C409.58 145.736 385.344 106.128 382.18 106.339L353.329 108.259C353.094 128.727 346.576 151.701 341.477 174.308Z" fill="#E59942"/>
<path d="M266.285 114.541C266.285 117.302 264.047 119.541 261.286 119.541L202.791 119.536C201.306 119.536 199.882 118.945 198.832 117.895C197.782 116.844 197.192 115.419 197.192 113.933L197.189 75.8761C197.188 74.3905 197.778 72.9657 198.828 71.9152C199.878 70.8648 201.302 70.2748 202.787 70.2749L260.682 70.2798C262.167 70.2799 263.591 70.8702 264.641 71.9208C265.691 72.9714 266.281 74.3963 266.281 75.882L266.285 114.541Z" fill="#F5A9A3"/>
<path d="M262.131 92.5409L273.881 100.189L255.632 102.537L262.131 92.5409Z" fill="#F5A9A3"/>
<path d="M231.969 100.846C237.75 100.847 242.436 96.1583 242.435 90.3746C242.435 84.5908 237.748 79.9018 231.967 79.9013C226.186 79.9008 221.5 84.589 221.501 90.3728C221.501 96.1565 226.188 100.846 231.969 100.846Z" fill="#F9CBC8"/>
<path d="M227.975 91.8269L230.938 93.8581L236.364 87.6023" stroke="#FBDDDA" stroke-width="1.81" stroke-linecap="round" stroke-linejoin="round"/>
<path d="M247.973 104.642L215.469 104.641L215.469 106.96L247.973 106.961L247.973 104.642Z" fill="#F9CBC8"/>
</g>
</g>
<defs>
<clipPath id="clip0_432_4804">
<rect width="581" height="490" fill="white" transform="matrix(-1 0 0 1 581 0)"/>
</clipPath>
<clipPath id="clip1_432_4804">
<rect width="365.546" height="462.062" fill="white" transform="matrix(-0.971052 0.238868 0.238516 0.971138 504.061 -33.6934)"/>
</clipPath>
</defs>
</svg>
